<mxfile host="65bd71144e">
    <diagram name="Page-1" id="hLnUzKsIZfY_c8V2M1LN">
        <mxGraphModel dx="1767" dy="567" grid="1" gridSize="10" guides="1" tooltips="1" connect="1" arrows="1" fold="1" page="1" pageScale="1" pageWidth="850" pageHeight="1100" math="0" shadow="0">
            <root>
                <mxCell id="0"/>
                <mxCell id="1" parent="0"/>
                <mxCell id="En5BO94fpWZc0f9aam7_-2" style="edgeStyle=orthogonalEdgeStyle;rounded=0;orthogonalLoop=1;jettySize=auto;html=1;" parent="1" source="En5BO94fpWZc0f9aam7_-1" edge="1">
                    <mxGeometry relative="1" as="geometry">
                        <mxPoint x="-640" y="260" as="targetPoint"/>
                    </mxGeometry>
                </mxCell>
                <mxCell id="En5BO94fpWZc0f9aam7_-1" value="" style="ellipse;whiteSpace=wrap;html=1;" parent="1" vertex="1">
                    <mxGeometry x="-700" y="80" width="120" height="80" as="geometry"/>
                </mxCell>
                <mxCell id="En5BO94fpWZc0f9aam7_-5" style="edgeStyle=orthogonalEdgeStyle;rounded=0;orthogonalLoop=1;jettySize=auto;html=1;entryX=0.5;entryY=0;entryDx=0;entryDy=0;entryPerimeter=0;" parent="1" edge="1">
                    <mxGeometry relative="1" as="geometry">
                        <mxPoint x="-640.5" y="430" as="targetPoint"/>
                        <mxPoint x="-640.5" y="310" as="sourcePoint"/>
                        <Array as="points">
                            <mxPoint x="-640" y="390"/>
                            <mxPoint x="-640" y="390"/>
                        </Array>
                    </mxGeometry>
                </mxCell>
                <mxCell id="En5BO94fpWZc0f9aam7_-4" value="" style="verticalLabelPosition=bottom;verticalAlign=top;html=1;shape=card;whiteSpace=wrap;size=20;arcSize=12;" parent="1" vertex="1">
                    <mxGeometry x="-690" y="260" width="100" height="60" as="geometry"/>
                </mxCell>
                <mxCell id="En5BO94fpWZc0f9aam7_-6" value="a" style="text;html=1;align=center;verticalAlign=middle;whiteSpace=wrap;rounded=0;" parent="1" vertex="1">
                    <mxGeometry x="-670" y="275" width="60" height="30" as="geometry"/>
                </mxCell>
                <mxCell id="En5BO94fpWZc0f9aam7_-9" value="start" style="text;html=1;align=center;verticalAlign=middle;whiteSpace=wrap;rounded=0;" parent="1" vertex="1">
                    <mxGeometry x="-670" y="105" width="60" height="30" as="geometry"/>
                </mxCell>
                <mxCell id="En5BO94fpWZc0f9aam7_-14" value="" style="ellipse;whiteSpace=wrap;html=1;" parent="1" vertex="1">
                    <mxGeometry x="-700" y="810" width="120" height="80" as="geometry"/>
                </mxCell>
                <mxCell id="En5BO94fpWZc0f9aam7_-15" value="stop" style="text;html=1;align=center;verticalAlign=middle;whiteSpace=wrap;rounded=0;" parent="1" vertex="1">
                    <mxGeometry x="-670" y="835" width="60" height="30" as="geometry"/>
                </mxCell>
                <mxCell id="i2CHwRuFtvmLIltVAc5B-16" value="" style="strokeWidth=2;html=1;shape=mxgraph.flowchart.document2;whiteSpace=wrap;size=0.2833323160807292;" parent="1" vertex="1">
                    <mxGeometry x="-690" y="425" width="100" height="60" as="geometry"/>
                </mxCell>
                <mxCell id="i2CHwRuFtvmLIltVAc5B-17" value="b" style="text;html=1;align=center;verticalAlign=middle;whiteSpace=wrap;rounded=0;" parent="1" vertex="1">
                    <mxGeometry x="-670" y="430" width="60" height="30" as="geometry"/>
                </mxCell>
                <mxCell id="i2CHwRuFtvmLIltVAc5B-28" style="edgeStyle=orthogonalEdgeStyle;rounded=0;orthogonalLoop=1;jettySize=auto;html=1;exitX=0.5;exitY=1;exitDx=0;exitDy=0;exitPerimeter=0;" parent="1" source="i2CHwRuFtvmLIltVAc5B-24" target="i2CHwRuFtvmLIltVAc5B-26" edge="1">
                    <mxGeometry relative="1" as="geometry"/>
                </mxCell>
                <mxCell id="i2CHwRuFtvmLIltVAc5B-24" value="" style="verticalLabelPosition=bottom;verticalAlign=top;html=1;shape=card;whiteSpace=wrap;size=20;arcSize=12;" parent="1" vertex="1">
                    <mxGeometry x="-690" y="570" width="100" height="60" as="geometry"/>
                </mxCell>
                <mxCell id="i2CHwRuFtvmLIltVAc5B-25" value="a" style="text;html=1;align=center;verticalAlign=middle;whiteSpace=wrap;rounded=0;" parent="1" vertex="1">
                    <mxGeometry x="-670" y="585" width="60" height="30" as="geometry"/>
                </mxCell>
                <mxCell id="i2CHwRuFtvmLIltVAc5B-30" style="edgeStyle=orthogonalEdgeStyle;rounded=0;orthogonalLoop=1;jettySize=auto;html=1;entryX=0.5;entryY=0;entryDx=0;entryDy=0;" parent="1" source="i2CHwRuFtvmLIltVAc5B-26" target="En5BO94fpWZc0f9aam7_-14" edge="1">
                    <mxGeometry relative="1" as="geometry"/>
                </mxCell>
                <mxCell id="i2CHwRuFtvmLIltVAc5B-26" value="" style="strokeWidth=2;html=1;shape=mxgraph.flowchart.document2;whiteSpace=wrap;size=0.2833323160807292;" parent="1" vertex="1">
                    <mxGeometry x="-690" y="695" width="100" height="60" as="geometry"/>
                </mxCell>
                <mxCell id="i2CHwRuFtvmLIltVAc5B-27" value="b" style="text;html=1;align=center;verticalAlign=middle;whiteSpace=wrap;rounded=0;" parent="1" vertex="1">
                    <mxGeometry x="-670" y="700" width="60" height="30" as="geometry"/>
                </mxCell>
                <mxCell id="i2CHwRuFtvmLIltVAc5B-29" style="edgeStyle=orthogonalEdgeStyle;rounded=0;orthogonalLoop=1;jettySize=auto;html=1;entryX=0.5;entryY=0;entryDx=0;entryDy=0;entryPerimeter=0;" parent="1" source="i2CHwRuFtvmLIltVAc5B-16" target="i2CHwRuFtvmLIltVAc5B-24" edge="1">
                    <mxGeometry relative="1" as="geometry"/>
                </mxCell>
                <mxCell id="i2CHwRuFtvmLIltVAc5B-31" style="edgeStyle=orthogonalEdgeStyle;rounded=0;orthogonalLoop=1;jettySize=auto;html=1;" parent="1" source="i2CHwRuFtvmLIltVAc5B-32" edge="1">
                    <mxGeometry relative="1" as="geometry">
                        <mxPoint x="-640" y="1120" as="targetPoint"/>
                    </mxGeometry>
                </mxCell>
                <mxCell id="i2CHwRuFtvmLIltVAc5B-32" value="" style="ellipse;whiteSpace=wrap;html=1;" parent="1" vertex="1">
                    <mxGeometry x="-700" y="940" width="120" height="80" as="geometry"/>
                </mxCell>
                <mxCell id="i2CHwRuFtvmLIltVAc5B-33" style="edgeStyle=orthogonalEdgeStyle;rounded=0;orthogonalLoop=1;jettySize=auto;html=1;entryX=0.5;entryY=0;entryDx=0;entryDy=0;entryPerimeter=0;" parent="1" edge="1">
                    <mxGeometry relative="1" as="geometry">
                        <mxPoint x="-640.5" y="1290" as="targetPoint"/>
                        <mxPoint x="-640.5" y="1170" as="sourcePoint"/>
                        <Array as="points">
                            <mxPoint x="-640" y="1250"/>
                            <mxPoint x="-640" y="1250"/>
                        </Array>
                    </mxGeometry>
                </mxCell>
                <mxCell id="i2CHwRuFtvmLIltVAc5B-34" value="" style="verticalLabelPosition=bottom;verticalAlign=top;html=1;shape=card;whiteSpace=wrap;size=20;arcSize=12;" parent="1" vertex="1">
                    <mxGeometry x="-690" y="1120" width="100" height="60" as="geometry"/>
                </mxCell>
                <mxCell id="i2CHwRuFtvmLIltVAc5B-35" value="a" style="text;html=1;align=center;verticalAlign=middle;whiteSpace=wrap;rounded=0;" parent="1" vertex="1">
                    <mxGeometry x="-670" y="1135" width="60" height="30" as="geometry"/>
                </mxCell>
                <mxCell id="i2CHwRuFtvmLIltVAc5B-36" value="start" style="text;html=1;align=center;verticalAlign=middle;whiteSpace=wrap;rounded=0;" parent="1" vertex="1">
                    <mxGeometry x="-670" y="965" width="60" height="30" as="geometry"/>
                </mxCell>
                <mxCell id="i2CHwRuFtvmLIltVAc5B-41" style="edgeStyle=orthogonalEdgeStyle;rounded=0;orthogonalLoop=1;jettySize=auto;html=1;entryX=0.5;entryY=0;entryDx=0;entryDy=0;" parent="1" source="i2CHwRuFtvmLIltVAc5B-37" target="i2CHwRuFtvmLIltVAc5B-39" edge="1">
                    <mxGeometry relative="1" as="geometry"/>
                </mxCell>
                <mxCell id="i2CHwRuFtvmLIltVAc5B-37" value="" style="strokeWidth=2;html=1;shape=mxgraph.flowchart.document2;whiteSpace=wrap;size=0.2833323160807292;" parent="1" vertex="1">
                    <mxGeometry x="-690" y="1285" width="100" height="60" as="geometry"/>
                </mxCell>
                <mxCell id="i2CHwRuFtvmLIltVAc5B-39" value="" style="ellipse;whiteSpace=wrap;html=1;" parent="1" vertex="1">
                    <mxGeometry x="-700" y="1410" width="120" height="80" as="geometry"/>
                </mxCell>
                <mxCell id="i2CHwRuFtvmLIltVAc5B-40" value="stop" style="text;html=1;align=center;verticalAlign=middle;whiteSpace=wrap;rounded=0;" parent="1" vertex="1">
                    <mxGeometry x="-670" y="1430" width="60" height="30" as="geometry"/>
                </mxCell>
                <mxCell id="i2CHwRuFtvmLIltVAc5B-42" value="page 11: ex1:" style="text;html=1;align=center;verticalAlign=middle;whiteSpace=wrap;rounded=0;" parent="1" vertex="1">
                    <mxGeometry x="-820" y="950" width="110" height="30" as="geometry"/>
                </mxCell>
                <mxCell id="i2CHwRuFtvmLIltVAc5B-43" value="page 11: ex3:" style="text;html=1;align=center;verticalAlign=middle;whiteSpace=wrap;rounded=0;" parent="1" vertex="1">
                    <mxGeometry x="-800" y="90" width="110" height="30" as="geometry"/>
                </mxCell>
                <mxCell id="i2CHwRuFtvmLIltVAc5B-44" style="edgeStyle=orthogonalEdgeStyle;rounded=0;orthogonalLoop=1;jettySize=auto;html=1;" parent="1" source="i2CHwRuFtvmLIltVAc5B-45" edge="1">
                    <mxGeometry relative="1" as="geometry">
                        <mxPoint x="-158" y="1120" as="targetPoint"/>
                    </mxGeometry>
                </mxCell>
                <mxCell id="i2CHwRuFtvmLIltVAc5B-45" value="" style="ellipse;whiteSpace=wrap;html=1;" parent="1" vertex="1">
                    <mxGeometry x="-218" y="940" width="120" height="80" as="geometry"/>
                </mxCell>
                <mxCell id="i2CHwRuFtvmLIltVAc5B-46" style="edgeStyle=orthogonalEdgeStyle;rounded=0;orthogonalLoop=1;jettySize=auto;html=1;entryX=0.5;entryY=0;entryDx=0;entryDy=0;entryPerimeter=0;" parent="1" edge="1">
                    <mxGeometry relative="1" as="geometry">
                        <mxPoint x="-158.5" y="1290" as="targetPoint"/>
                        <mxPoint x="-158.5" y="1170" as="sourcePoint"/>
                        <Array as="points">
                            <mxPoint x="-158" y="1250"/>
                            <mxPoint x="-158" y="1250"/>
                        </Array>
                    </mxGeometry>
                </mxCell>
                <mxCell id="i2CHwRuFtvmLIltVAc5B-47" value="" style="verticalLabelPosition=bottom;verticalAlign=top;html=1;shape=card;whiteSpace=wrap;size=20;arcSize=12;" parent="1" vertex="1">
                    <mxGeometry x="-260" y="1120" width="200" height="60" as="geometry"/>
                </mxCell>
                <mxCell id="i2CHwRuFtvmLIltVAc5B-48" value="first,second" style="text;html=1;align=center;verticalAlign=middle;whiteSpace=wrap;rounded=0;" parent="1" vertex="1">
                    <mxGeometry x="-228" y="1135" width="148" height="30" as="geometry"/>
                </mxCell>
                <mxCell id="i2CHwRuFtvmLIltVAc5B-49" value="start" style="text;html=1;align=center;verticalAlign=middle;whiteSpace=wrap;rounded=0;" parent="1" vertex="1">
                    <mxGeometry x="-188" y="965" width="60" height="30" as="geometry"/>
                </mxCell>
                <mxCell id="i2CHwRuFtvmLIltVAc5B-54" style="edgeStyle=orthogonalEdgeStyle;rounded=0;orthogonalLoop=1;jettySize=auto;html=1;" parent="1" source="i2CHwRuFtvmLIltVAc5B-50" edge="1">
                    <mxGeometry relative="1" as="geometry">
                        <mxPoint x="-160" y="1400" as="targetPoint"/>
                    </mxGeometry>
                </mxCell>
                <mxCell id="i2CHwRuFtvmLIltVAc5B-50" value="" style="strokeWidth=2;html=1;shape=mxgraph.flowchart.document2;whiteSpace=wrap;size=0.2833323160807292;" parent="1" vertex="1">
                    <mxGeometry x="-254" y="1230" width="188" height="65" as="geometry"/>
                </mxCell>
                <mxCell id="i2CHwRuFtvmLIltVAc5B-51" value="second,first" style="text;html=1;align=center;verticalAlign=middle;whiteSpace=wrap;rounded=0;" parent="1" vertex="1">
                    <mxGeometry x="-234" y="1235" width="158" height="30" as="geometry"/>
                </mxCell>
                <mxCell id="i2CHwRuFtvmLIltVAc5B-52" value="" style="ellipse;whiteSpace=wrap;html=1;" parent="1" vertex="1">
                    <mxGeometry x="-218" y="1405" width="120" height="80" as="geometry"/>
                </mxCell>
                <mxCell id="i2CHwRuFtvmLIltVAc5B-53" value="stop" style="text;html=1;align=center;verticalAlign=middle;whiteSpace=wrap;rounded=0;" parent="1" vertex="1">
                    <mxGeometry x="-188" y="1430" width="60" height="30" as="geometry"/>
                </mxCell>
                <mxCell id="i2CHwRuFtvmLIltVAc5B-55" value="page 11: ex4:" style="text;html=1;align=center;verticalAlign=middle;whiteSpace=wrap;rounded=0;" parent="1" vertex="1">
                    <mxGeometry x="-344" y="965" width="110" height="30" as="geometry"/>
                </mxCell>
                <mxCell id="i2CHwRuFtvmLIltVAc5B-56" value="" style="rounded=1;whiteSpace=wrap;html=1;" parent="1" vertex="1">
                    <mxGeometry x="-700" y="1200" width="120" height="60" as="geometry"/>
                </mxCell>
                <mxCell id="i2CHwRuFtvmLIltVAc5B-57" value="a *2" style="text;html=1;align=center;verticalAlign=middle;whiteSpace=wrap;rounded=0;" parent="1" vertex="1">
                    <mxGeometry x="-670" y="1215" width="60" height="30" as="geometry"/>
                </mxCell>
                <mxCell id="i2CHwRuFtvmLIltVAc5B-58" value="b" style="text;html=1;align=center;verticalAlign=middle;whiteSpace=wrap;rounded=0;" parent="1" vertex="1">
                    <mxGeometry x="-670" y="1295" width="60" height="30" as="geometry"/>
                </mxCell>
                <mxCell id="i2CHwRuFtvmLIltVAc5B-59" style="edgeStyle=orthogonalEdgeStyle;rounded=0;orthogonalLoop=1;jettySize=auto;html=1;" parent="1" source="i2CHwRuFtvmLIltVAc5B-60" edge="1">
                    <mxGeometry relative="1" as="geometry">
                        <mxPoint x="-644" y="1730" as="targetPoint"/>
                    </mxGeometry>
                </mxCell>
                <mxCell id="i2CHwRuFtvmLIltVAc5B-60" value="" style="ellipse;whiteSpace=wrap;html=1;" parent="1" vertex="1">
                    <mxGeometry x="-704" y="1550" width="120" height="80" as="geometry"/>
                </mxCell>
                <mxCell id="i2CHwRuFtvmLIltVAc5B-61" style="edgeStyle=orthogonalEdgeStyle;rounded=0;orthogonalLoop=1;jettySize=auto;html=1;entryX=0.5;entryY=0;entryDx=0;entryDy=0;entryPerimeter=0;" parent="1" edge="1">
                    <mxGeometry relative="1" as="geometry">
                        <mxPoint x="-644.5" y="1900" as="targetPoint"/>
                        <mxPoint x="-644.5" y="1780" as="sourcePoint"/>
                        <Array as="points">
                            <mxPoint x="-644" y="1860"/>
                            <mxPoint x="-644" y="1860"/>
                        </Array>
                    </mxGeometry>
                </mxCell>
                <mxCell id="i2CHwRuFtvmLIltVAc5B-62" value="" style="verticalLabelPosition=bottom;verticalAlign=top;html=1;shape=card;whiteSpace=wrap;size=20;arcSize=12;" parent="1" vertex="1">
                    <mxGeometry x="-746" y="1730" width="200" height="60" as="geometry"/>
                </mxCell>
                <mxCell id="i2CHwRuFtvmLIltVAc5B-63" value="first,second" style="text;html=1;align=center;verticalAlign=middle;whiteSpace=wrap;rounded=0;" parent="1" vertex="1">
                    <mxGeometry x="-714" y="1745" width="148" height="30" as="geometry"/>
                </mxCell>
                <mxCell id="i2CHwRuFtvmLIltVAc5B-64" value="start" style="text;html=1;align=center;verticalAlign=middle;whiteSpace=wrap;rounded=0;" parent="1" vertex="1">
                    <mxGeometry x="-674" y="1575" width="60" height="30" as="geometry"/>
                </mxCell>
                <mxCell id="i2CHwRuFtvmLIltVAc5B-65" style="edgeStyle=orthogonalEdgeStyle;rounded=0;orthogonalLoop=1;jettySize=auto;html=1;" parent="1" source="i2CHwRuFtvmLIltVAc5B-66" edge="1">
                    <mxGeometry relative="1" as="geometry">
                        <mxPoint x="-646" y="2010" as="targetPoint"/>
                    </mxGeometry>
                </mxCell>
                <mxCell id="i2CHwRuFtvmLIltVAc5B-66" value="" style="strokeWidth=2;html=1;shape=mxgraph.flowchart.document2;whiteSpace=wrap;size=0.2833323160807292;" parent="1" vertex="1">
                    <mxGeometry x="-740" y="1840" width="188" height="65" as="geometry"/>
                </mxCell>
                <mxCell id="i2CHwRuFtvmLIltVAc5B-67" value="second" style="text;html=1;align=center;verticalAlign=middle;whiteSpace=wrap;rounded=0;" parent="1" vertex="1">
                    <mxGeometry x="-720" y="1845" width="158" height="30" as="geometry"/>
                </mxCell>
                <mxCell id="i2CHwRuFtvmLIltVAc5B-68" value="" style="ellipse;whiteSpace=wrap;html=1;" parent="1" vertex="1">
                    <mxGeometry x="-704" y="2015" width="120" height="80" as="geometry"/>
                </mxCell>
                <mxCell id="i2CHwRuFtvmLIltVAc5B-69" value="stop" style="text;html=1;align=center;verticalAlign=middle;whiteSpace=wrap;rounded=0;" parent="1" vertex="1">
                    <mxGeometry x="-674" y="2040" width="60" height="30" as="geometry"/>
                </mxCell>
                <mxCell id="i2CHwRuFtvmLIltVAc5B-70" value="page 11: ex5:" style="text;html=1;align=center;verticalAlign=middle;whiteSpace=wrap;rounded=0;" parent="1" vertex="1">
                    <mxGeometry x="-830" y="1575" width="110" height="30" as="geometry"/>
                </mxCell>
                <mxCell id="i2CHwRuFtvmLIltVAc5B-71" style="edgeStyle=orthogonalEdgeStyle;rounded=0;orthogonalLoop=1;jettySize=auto;html=1;" parent="1" source="i2CHwRuFtvmLIltVAc5B-72" edge="1">
                    <mxGeometry relative="1" as="geometry">
                        <mxPoint x="-376" y="1730" as="targetPoint"/>
                    </mxGeometry>
                </mxCell>
                <mxCell id="i2CHwRuFtvmLIltVAc5B-72" value="" style="ellipse;whiteSpace=wrap;html=1;" parent="1" vertex="1">
                    <mxGeometry x="-436" y="1550" width="120" height="80" as="geometry"/>
                </mxCell>
                <mxCell id="i2CHwRuFtvmLIltVAc5B-73" style="edgeStyle=orthogonalEdgeStyle;rounded=0;orthogonalLoop=1;jettySize=auto;html=1;entryX=0.5;entryY=0;entryDx=0;entryDy=0;entryPerimeter=0;" parent="1" edge="1">
                    <mxGeometry relative="1" as="geometry">
                        <mxPoint x="-376.5" y="1900" as="targetPoint"/>
                        <mxPoint x="-376.5" y="1780" as="sourcePoint"/>
                        <Array as="points">
                            <mxPoint x="-376" y="1860"/>
                            <mxPoint x="-376" y="1860"/>
                        </Array>
                    </mxGeometry>
                </mxCell>
                <mxCell id="i2CHwRuFtvmLIltVAc5B-74" value="" style="verticalLabelPosition=bottom;verticalAlign=top;html=1;shape=card;whiteSpace=wrap;size=20;arcSize=12;" parent="1" vertex="1">
                    <mxGeometry x="-478" y="1730" width="200" height="60" as="geometry"/>
                </mxCell>
                <mxCell id="i2CHwRuFtvmLIltVAc5B-75" value="first,second" style="text;html=1;align=center;verticalAlign=middle;whiteSpace=wrap;rounded=0;" parent="1" vertex="1">
                    <mxGeometry x="-446" y="1745" width="148" height="30" as="geometry"/>
                </mxCell>
                <mxCell id="i2CHwRuFtvmLIltVAc5B-76" value="start" style="text;html=1;align=center;verticalAlign=middle;whiteSpace=wrap;rounded=0;" parent="1" vertex="1">
                    <mxGeometry x="-406" y="1575" width="60" height="30" as="geometry"/>
                </mxCell>
                <mxCell id="i2CHwRuFtvmLIltVAc5B-77" style="edgeStyle=orthogonalEdgeStyle;rounded=0;orthogonalLoop=1;jettySize=auto;html=1;" parent="1" source="i2CHwRuFtvmLIltVAc5B-78" edge="1">
                    <mxGeometry relative="1" as="geometry">
                        <mxPoint x="-378" y="2010" as="targetPoint"/>
                    </mxGeometry>
                </mxCell>
                <mxCell id="i2CHwRuFtvmLIltVAc5B-78" value="" style="strokeWidth=2;html=1;shape=mxgraph.flowchart.document2;whiteSpace=wrap;size=0.2833323160807292;" parent="1" vertex="1">
                    <mxGeometry x="-472" y="1840" width="188" height="65" as="geometry"/>
                </mxCell>
                <mxCell id="i2CHwRuFtvmLIltVAc5B-79" value="first" style="text;html=1;align=center;verticalAlign=middle;whiteSpace=wrap;rounded=0;" parent="1" vertex="1">
                    <mxGeometry x="-452" y="1845" width="158" height="30" as="geometry"/>
                </mxCell>
                <mxCell id="i2CHwRuFtvmLIltVAc5B-80" value="" style="ellipse;whiteSpace=wrap;html=1;" parent="1" vertex="1">
                    <mxGeometry x="-436" y="2015" width="120" height="80" as="geometry"/>
                </mxCell>
                <mxCell id="i2CHwRuFtvmLIltVAc5B-81" value="stop" style="text;html=1;align=center;verticalAlign=middle;whiteSpace=wrap;rounded=0;" parent="1" vertex="1">
                    <mxGeometry x="-406" y="2040" width="60" height="30" as="geometry"/>
                </mxCell>
                <mxCell id="i2CHwRuFtvmLIltVAc5B-82" value="page 11: ex6:" style="text;html=1;align=center;verticalAlign=middle;whiteSpace=wrap;rounded=0;" parent="1" vertex="1">
                    <mxGeometry x="-562" y="1575" width="110" height="30" as="geometry"/>
                </mxCell>
                <mxCell id="i2CHwRuFtvmLIltVAc5B-83" style="edgeStyle=orthogonalEdgeStyle;rounded=0;orthogonalLoop=1;jettySize=auto;html=1;" parent="1" source="i2CHwRuFtvmLIltVAc5B-84" edge="1">
                    <mxGeometry relative="1" as="geometry">
                        <mxPoint x="-48" y="1730" as="targetPoint"/>
                    </mxGeometry>
                </mxCell>
                <mxCell id="i2CHwRuFtvmLIltVAc5B-84" value="" style="ellipse;whiteSpace=wrap;html=1;" parent="1" vertex="1">
                    <mxGeometry x="-108" y="1550" width="120" height="80" as="geometry"/>
                </mxCell>
                <mxCell id="i2CHwRuFtvmLIltVAc5B-99" style="edgeStyle=orthogonalEdgeStyle;rounded=0;orthogonalLoop=1;jettySize=auto;html=1;" parent="1" source="i2CHwRuFtvmLIltVAc5B-86" edge="1">
                    <mxGeometry relative="1" as="geometry">
                        <mxPoint x="-50" y="1850" as="targetPoint"/>
                        <Array as="points">
                            <mxPoint x="-50" y="1820"/>
                            <mxPoint x="-50" y="1820"/>
                        </Array>
                    </mxGeometry>
                </mxCell>
                <mxCell id="i2CHwRuFtvmLIltVAc5B-86" value="" style="verticalLabelPosition=bottom;verticalAlign=top;html=1;shape=card;whiteSpace=wrap;size=20;arcSize=12;" parent="1" vertex="1">
                    <mxGeometry x="-150" y="1730" width="200" height="60" as="geometry"/>
                </mxCell>
                <mxCell id="i2CHwRuFtvmLIltVAc5B-87" value="number" style="text;html=1;align=center;verticalAlign=middle;whiteSpace=wrap;rounded=0;" parent="1" vertex="1">
                    <mxGeometry x="-118" y="1745" width="148" height="30" as="geometry"/>
                </mxCell>
                <mxCell id="i2CHwRuFtvmLIltVAc5B-88" value="start" style="text;html=1;align=center;verticalAlign=middle;whiteSpace=wrap;rounded=0;" parent="1" vertex="1">
                    <mxGeometry x="-78" y="1575" width="60" height="30" as="geometry"/>
                </mxCell>
                <mxCell id="i2CHwRuFtvmLIltVAc5B-98" style="edgeStyle=orthogonalEdgeStyle;rounded=0;orthogonalLoop=1;jettySize=auto;html=1;" parent="1" source="i2CHwRuFtvmLIltVAc5B-90" edge="1">
                    <mxGeometry relative="1" as="geometry">
                        <mxPoint x="-44" y="2010" as="targetPoint"/>
                    </mxGeometry>
                </mxCell>
                <mxCell id="i2CHwRuFtvmLIltVAc5B-90" value="" style="strokeWidth=2;html=1;shape=mxgraph.flowchart.document2;whiteSpace=wrap;size=0.2833323160807292;" parent="1" vertex="1">
                    <mxGeometry x="-138" y="1860" width="188" height="65" as="geometry"/>
                </mxCell>
                <mxCell id="i2CHwRuFtvmLIltVAc5B-91" value="number,number,number" style="text;html=1;align=center;verticalAlign=middle;whiteSpace=wrap;rounded=0;" parent="1" vertex="1">
                    <mxGeometry x="-125" y="1865" width="158" height="30" as="geometry"/>
                </mxCell>
                <mxCell id="i2CHwRuFtvmLIltVAc5B-92" value="" style="ellipse;whiteSpace=wrap;html=1;" parent="1" vertex="1">
                    <mxGeometry x="-104" y="2015" width="120" height="80" as="geometry"/>
                </mxCell>
                <mxCell id="i2CHwRuFtvmLIltVAc5B-93" value="stop" style="text;html=1;align=center;verticalAlign=middle;whiteSpace=wrap;rounded=0;" parent="1" vertex="1">
                    <mxGeometry x="-74" y="2040" width="60" height="30" as="geometry"/>
                </mxCell>
                <mxCell id="i2CHwRuFtvmLIltVAc5B-94" value="page 11: ex7:" style="text;html=1;align=center;verticalAlign=middle;whiteSpace=wrap;rounded=0;" parent="1" vertex="1">
                    <mxGeometry x="-234" y="1575" width="110" height="30" as="geometry"/>
                </mxCell>
                <mxCell id="i2CHwRuFtvmLIltVAc5B-100" value="" style="ellipse;whiteSpace=wrap;html=1;" parent="1" vertex="1">
                    <mxGeometry x="-412.5" y="75" width="120" height="80" as="geometry"/>
                </mxCell>
                <mxCell id="i2CHwRuFtvmLIltVAc5B-112" style="edgeStyle=orthogonalEdgeStyle;rounded=0;orthogonalLoop=1;jettySize=auto;html=1;" parent="1" source="i2CHwRuFtvmLIltVAc5B-102" edge="1">
                    <mxGeometry relative="1" as="geometry">
                        <mxPoint x="-352.5" y="285" as="targetPoint"/>
                    </mxGeometry>
                </mxCell>
                <mxCell id="i2CHwRuFtvmLIltVAc5B-102" value="" style="verticalLabelPosition=bottom;verticalAlign=top;html=1;shape=card;whiteSpace=wrap;size=20;arcSize=12;" parent="1" vertex="1">
                    <mxGeometry x="-402.5" y="200" width="100" height="60" as="geometry"/>
                </mxCell>
                <mxCell id="i2CHwRuFtvmLIltVAc5B-105" style="edgeStyle=orthogonalEdgeStyle;rounded=0;orthogonalLoop=1;jettySize=auto;html=1;" parent="1" source="i2CHwRuFtvmLIltVAc5B-104" target="i2CHwRuFtvmLIltVAc5B-106" edge="1">
                    <mxGeometry relative="1" as="geometry">
                        <mxPoint x="-352.5" y="515" as="targetPoint"/>
                    </mxGeometry>
                </mxCell>
                <mxCell id="i2CHwRuFtvmLIltVAc5B-104" value="" style="strokeWidth=2;html=1;shape=mxgraph.flowchart.document2;whiteSpace=wrap;size=0.25;" parent="1" vertex="1">
                    <mxGeometry x="-435" y="390" width="165" height="80" as="geometry"/>
                </mxCell>
                <mxCell id="i2CHwRuFtvmLIltVAc5B-106" value="" style="ellipse;whiteSpace=wrap;html=1;" parent="1" vertex="1">
                    <mxGeometry x="-412.5" y="505" width="120" height="80" as="geometry"/>
                </mxCell>
                <mxCell id="i2CHwRuFtvmLIltVAc5B-107" value="start" style="text;html=1;align=center;verticalAlign=middle;whiteSpace=wrap;rounded=0;" parent="1" vertex="1">
                    <mxGeometry x="-382.5" y="100" width="60" height="30" as="geometry"/>
                </mxCell>
                <mxCell id="i2CHwRuFtvmLIltVAc5B-108" value="stop" style="text;html=1;align=center;verticalAlign=middle;whiteSpace=wrap;rounded=0;" parent="1" vertex="1">
                    <mxGeometry x="-382.5" y="530" width="60" height="30" as="geometry"/>
                </mxCell>
                <mxCell id="i2CHwRuFtvmLIltVAc5B-109" style="edgeStyle=orthogonalEdgeStyle;rounded=0;orthogonalLoop=1;jettySize=auto;html=1;entryX=0.5;entryY=0;entryDx=0;entryDy=0;entryPerimeter=0;" parent="1" source="i2CHwRuFtvmLIltVAc5B-100" target="i2CHwRuFtvmLIltVAc5B-102" edge="1">
                    <mxGeometry relative="1" as="geometry"/>
                </mxCell>
                <mxCell id="i2CHwRuFtvmLIltVAc5B-110" value="a,b,c" style="text;html=1;align=center;verticalAlign=middle;whiteSpace=wrap;rounded=0;" parent="1" vertex="1">
                    <mxGeometry x="-382.5" y="215" width="60" height="30" as="geometry"/>
                </mxCell>
                <mxCell id="i2CHwRuFtvmLIltVAc5B-111" value="" style="rounded=1;whiteSpace=wrap;html=1;" parent="1" vertex="1">
                    <mxGeometry x="-445" y="290" width="185" height="75" as="geometry"/>
                </mxCell>
                <mxCell id="i2CHwRuFtvmLIltVAc5B-113" style="edgeStyle=orthogonalEdgeStyle;rounded=0;orthogonalLoop=1;jettySize=auto;html=1;entryX=0.5;entryY=0;entryDx=0;entryDy=0;entryPerimeter=0;" parent="1" source="i2CHwRuFtvmLIltVAc5B-111" target="i2CHwRuFtvmLIltVAc5B-104" edge="1">
                    <mxGeometry relative="1" as="geometry"/>
                </mxCell>
                <mxCell id="i2CHwRuFtvmLIltVAc5B-114" value="sum=a+b+c&lt;br&gt;avrage =sum/3&lt;div&gt;&lt;br&gt;&lt;/div&gt;" style="text;html=1;align=center;verticalAlign=middle;whiteSpace=wrap;rounded=0;" parent="1" vertex="1">
                    <mxGeometry x="-407.5" y="295" width="115" height="65" as="geometry"/>
                </mxCell>
                <mxCell id="i2CHwRuFtvmLIltVAc5B-115" value="sum,average" style="text;html=1;align=center;verticalAlign=middle;whiteSpace=wrap;rounded=0;" parent="1" vertex="1">
                    <mxGeometry x="-430" y="410" width="155" height="30" as="geometry"/>
                </mxCell>
                <mxCell id="i2CHwRuFtvmLIltVAc5B-116" value="page 15 ex1:" style="text;html=1;align=center;verticalAlign=middle;whiteSpace=wrap;rounded=0;" parent="1" vertex="1">
                    <mxGeometry x="-517.5" y="105" width="110" height="30" as="geometry"/>
                </mxCell>
                <mxCell id="i2CHwRuFtvmLIltVAc5B-117" value="" style="ellipse;whiteSpace=wrap;html=1;" parent="1" vertex="1">
                    <mxGeometry x="-113" y="75" width="120" height="80" as="geometry"/>
                </mxCell>
                <mxCell id="i2CHwRuFtvmLIltVAc5B-118" style="edgeStyle=orthogonalEdgeStyle;rounded=0;orthogonalLoop=1;jettySize=auto;html=1;" parent="1" source="i2CHwRuFtvmLIltVAc5B-119" edge="1">
                    <mxGeometry relative="1" as="geometry">
                        <mxPoint x="-53" y="285" as="targetPoint"/>
                    </mxGeometry>
                </mxCell>
                <mxCell id="i2CHwRuFtvmLIltVAc5B-119" value="" style="verticalLabelPosition=bottom;verticalAlign=top;html=1;shape=card;whiteSpace=wrap;size=20;arcSize=12;" parent="1" vertex="1">
                    <mxGeometry x="-103" y="200" width="100" height="60" as="geometry"/>
                </mxCell>
                <mxCell id="i2CHwRuFtvmLIltVAc5B-120" style="edgeStyle=orthogonalEdgeStyle;rounded=0;orthogonalLoop=1;jettySize=auto;html=1;" parent="1" source="i2CHwRuFtvmLIltVAc5B-121" target="i2CHwRuFtvmLIltVAc5B-122" edge="1">
                    <mxGeometry relative="1" as="geometry">
                        <mxPoint x="-53" y="515" as="targetPoint"/>
                    </mxGeometry>
                </mxCell>
                <mxCell id="i2CHwRuFtvmLIltVAc5B-121" value="" style="strokeWidth=2;html=1;shape=mxgraph.flowchart.document2;whiteSpace=wrap;size=0.25;" parent="1" vertex="1">
                    <mxGeometry x="-135.5" y="390" width="165" height="80" as="geometry"/>
                </mxCell>
                <mxCell id="i2CHwRuFtvmLIltVAc5B-122" value="" style="ellipse;whiteSpace=wrap;html=1;" parent="1" vertex="1">
                    <mxGeometry x="-113" y="505" width="120" height="80" as="geometry"/>
                </mxCell>
                <mxCell id="i2CHwRuFtvmLIltVAc5B-123" value="start" style="text;html=1;align=center;verticalAlign=middle;whiteSpace=wrap;rounded=0;" parent="1" vertex="1">
                    <mxGeometry x="-83" y="100" width="60" height="30" as="geometry"/>
                </mxCell>
                <mxCell id="i2CHwRuFtvmLIltVAc5B-124" value="stop" style="text;html=1;align=center;verticalAlign=middle;whiteSpace=wrap;rounded=0;" parent="1" vertex="1">
                    <mxGeometry x="-83" y="530" width="60" height="30" as="geometry"/>
                </mxCell>
                <mxCell id="i2CHwRuFtvmLIltVAc5B-125" style="edgeStyle=orthogonalEdgeStyle;rounded=0;orthogonalLoop=1;jettySize=auto;html=1;entryX=0.5;entryY=0;entryDx=0;entryDy=0;entryPerimeter=0;" parent="1" source="i2CHwRuFtvmLIltVAc5B-117" target="i2CHwRuFtvmLIltVAc5B-119" edge="1">
                    <mxGeometry relative="1" as="geometry"/>
                </mxCell>
                <mxCell id="i2CHwRuFtvmLIltVAc5B-126" value="length,width" style="text;html=1;align=center;verticalAlign=middle;whiteSpace=wrap;rounded=0;" parent="1" vertex="1">
                    <mxGeometry x="-95.5" y="215" width="85" height="30" as="geometry"/>
                </mxCell>
                <mxCell id="i2CHwRuFtvmLIltVAc5B-127" value="" style="rounded=1;whiteSpace=wrap;html=1;" parent="1" vertex="1">
                    <mxGeometry x="-145.5" y="290" width="185" height="75" as="geometry"/>
                </mxCell>
                <mxCell id="i2CHwRuFtvmLIltVAc5B-128" style="edgeStyle=orthogonalEdgeStyle;rounded=0;orthogonalLoop=1;jettySize=auto;html=1;entryX=0.5;entryY=0;entryDx=0;entryDy=0;entryPerimeter=0;" parent="1" source="i2CHwRuFtvmLIltVAc5B-127" target="i2CHwRuFtvmLIltVAc5B-121" edge="1">
                    <mxGeometry relative="1" as="geometry"/>
                </mxCell>
                <mxCell id="i2CHwRuFtvmLIltVAc5B-129" value="length=6&lt;br&gt;width=11&lt;div&gt;room area = 6*11&lt;/div&gt;" style="text;html=1;align=center;verticalAlign=middle;whiteSpace=wrap;rounded=0;" parent="1" vertex="1">
                    <mxGeometry x="-133" y="295" width="165" height="65" as="geometry"/>
                </mxCell>
                <mxCell id="i2CHwRuFtvmLIltVAc5B-130" value="room area" style="text;html=1;align=center;verticalAlign=middle;whiteSpace=wrap;rounded=0;" parent="1" vertex="1">
                    <mxGeometry x="-130.5" y="410" width="155" height="30" as="geometry"/>
                </mxCell>
                <mxCell id="i2CHwRuFtvmLIltVAc5B-131" value="page 15 ex2:" style="text;html=1;align=center;verticalAlign=middle;whiteSpace=wrap;rounded=0;" parent="1" vertex="1">
                    <mxGeometry x="-218" y="105" width="110" height="30" as="geometry"/>
                </mxCell>
                <mxCell id="i2CHwRuFtvmLIltVAc5B-132" value="" style="ellipse;whiteSpace=wrap;html=1;" parent="1" vertex="1">
                    <mxGeometry x="205" y="72.5" width="120" height="80" as="geometry"/>
                </mxCell>
                <mxCell id="i2CHwRuFtvmLIltVAc5B-133" style="edgeStyle=orthogonalEdgeStyle;rounded=0;orthogonalLoop=1;jettySize=auto;html=1;" parent="1" source="i2CHwRuFtvmLIltVAc5B-134" edge="1">
                    <mxGeometry relative="1" as="geometry">
                        <mxPoint x="265" y="282.5" as="targetPoint"/>
                    </mxGeometry>
                </mxCell>
                <mxCell id="i2CHwRuFtvmLIltVAc5B-134" value="" style="verticalLabelPosition=bottom;verticalAlign=top;html=1;shape=card;whiteSpace=wrap;size=20;arcSize=12;" parent="1" vertex="1">
                    <mxGeometry x="215" y="197.5" width="100" height="60" as="geometry"/>
                </mxCell>
                <mxCell id="i2CHwRuFtvmLIltVAc5B-135" style="edgeStyle=orthogonalEdgeStyle;rounded=0;orthogonalLoop=1;jettySize=auto;html=1;" parent="1" source="i2CHwRuFtvmLIltVAc5B-136" target="i2CHwRuFtvmLIltVAc5B-137" edge="1">
                    <mxGeometry relative="1" as="geometry">
                        <mxPoint x="265" y="512.5" as="targetPoint"/>
                    </mxGeometry>
                </mxCell>
                <mxCell id="i2CHwRuFtvmLIltVAc5B-136" value="" style="strokeWidth=2;html=1;shape=mxgraph.flowchart.document2;whiteSpace=wrap;size=0.25;" parent="1" vertex="1">
                    <mxGeometry x="182.5" y="387.5" width="165" height="80" as="geometry"/>
                </mxCell>
                <mxCell id="i2CHwRuFtvmLIltVAc5B-137" value="" style="ellipse;whiteSpace=wrap;html=1;" parent="1" vertex="1">
                    <mxGeometry x="205" y="502.5" width="120" height="80" as="geometry"/>
                </mxCell>
                <mxCell id="i2CHwRuFtvmLIltVAc5B-138" value="start" style="text;html=1;align=center;verticalAlign=middle;whiteSpace=wrap;rounded=0;" parent="1" vertex="1">
                    <mxGeometry x="235" y="97.5" width="60" height="30" as="geometry"/>
                </mxCell>
                <mxCell id="i2CHwRuFtvmLIltVAc5B-139" value="stop" style="text;html=1;align=center;verticalAlign=middle;whiteSpace=wrap;rounded=0;" parent="1" vertex="1">
                    <mxGeometry x="235" y="527.5" width="60" height="30" as="geometry"/>
                </mxCell>
                <mxCell id="i2CHwRuFtvmLIltVAc5B-140" style="edgeStyle=orthogonalEdgeStyle;rounded=0;orthogonalLoop=1;jettySize=auto;html=1;entryX=0.5;entryY=0;entryDx=0;entryDy=0;entryPerimeter=0;" parent="1" source="i2CHwRuFtvmLIltVAc5B-132" target="i2CHwRuFtvmLIltVAc5B-134" edge="1">
                    <mxGeometry relative="1" as="geometry"/>
                </mxCell>
                <mxCell id="i2CHwRuFtvmLIltVAc5B-141" value="diameter, depth" style="text;html=1;align=center;verticalAlign=middle;whiteSpace=wrap;rounded=0;" parent="1" vertex="1">
                    <mxGeometry x="222.5" y="212.5" width="85" height="30" as="geometry"/>
                </mxCell>
                <mxCell id="i2CHwRuFtvmLIltVAc5B-142" value="" style="rounded=1;whiteSpace=wrap;html=1;" parent="1" vertex="1">
                    <mxGeometry x="172.5" y="287.5" width="185" height="75" as="geometry"/>
                </mxCell>
                <mxCell id="i2CHwRuFtvmLIltVAc5B-143" style="edgeStyle=orthogonalEdgeStyle;rounded=0;orthogonalLoop=1;jettySize=auto;html=1;entryX=0.5;entryY=0;entryDx=0;entryDy=0;entryPerimeter=0;" parent="1" source="i2CHwRuFtvmLIltVAc5B-142" target="i2CHwRuFtvmLIltVAc5B-136" edge="1">
                    <mxGeometry relative="1" as="geometry"/>
                </mxCell>
                <mxCell id="i2CHwRuFtvmLIltVAc5B-144" value="rad=diameter/2&lt;br&gt;area= 3.14*rad**2&lt;div&gt;capacity = area*depth&lt;/div&gt;" style="text;html=1;align=center;verticalAlign=middle;whiteSpace=wrap;rounded=0;" parent="1" vertex="1">
                    <mxGeometry x="185" y="292.5" width="165" height="65" as="geometry"/>
                </mxCell>
                <mxCell id="i2CHwRuFtvmLIltVAc5B-145" value="capacity" style="text;html=1;align=center;verticalAlign=middle;whiteSpace=wrap;rounded=0;" parent="1" vertex="1">
                    <mxGeometry x="187.5" y="407.5" width="155" height="30" as="geometry"/>
                </mxCell>
                <mxCell id="i2CHwRuFtvmLIltVAc5B-146" value="page 15 ex3:" style="text;html=1;align=center;verticalAlign=middle;whiteSpace=wrap;rounded=0;" parent="1" vertex="1">
                    <mxGeometry x="100" y="102.5" width="110" height="30" as="geometry"/>
                </mxCell>
                <mxCell id="i2CHwRuFtvmLIltVAc5B-147" style="edgeStyle=orthogonalEdgeStyle;rounded=0;orthogonalLoop=1;jettySize=auto;html=1;" parent="1" source="i2CHwRuFtvmLIltVAc5B-148" target="i2CHwRuFtvmLIltVAc5B-155" edge="1">
                    <mxGeometry relative="1" as="geometry"/>
                </mxCell>
                <mxCell id="i2CHwRuFtvmLIltVAc5B-148" value="" style="verticalLabelPosition=bottom;verticalAlign=top;html=1;shape=card;whiteSpace=wrap;size=20;arcSize=12;" parent="1" vertex="1">
                    <mxGeometry x="340" y="890" width="100" height="60" as="geometry"/>
                </mxCell>
                <mxCell id="i2CHwRuFtvmLIltVAc5B-149" value="age" style="text;html=1;align=center;verticalAlign=middle;whiteSpace=wrap;rounded=0;" parent="1" vertex="1">
                    <mxGeometry x="360" y="905" width="60" height="30" as="geometry"/>
                </mxCell>
                <mxCell id="i2CHwRuFtvmLIltVAc5B-151" style="edgeStyle=orthogonalEdgeStyle;rounded=0;orthogonalLoop=1;jettySize=auto;html=1;" parent="1" edge="1">
                    <mxGeometry relative="1" as="geometry">
                        <mxPoint x="614" y="1302" as="targetPoint"/>
                        <mxPoint x="444" y="1079" as="sourcePoint"/>
                    </mxGeometry>
                </mxCell>
                <mxCell id="i2CHwRuFtvmLIltVAc5B-153" style="edgeStyle=orthogonalEdgeStyle;rounded=0;orthogonalLoop=1;jettySize=auto;html=1;" parent="1" source="i2CHwRuFtvmLIltVAc5B-155" edge="1">
                    <mxGeometry relative="1" as="geometry">
                        <mxPoint x="220" y="1180" as="targetPoint"/>
                    </mxGeometry>
                </mxCell>
                <mxCell id="i2CHwRuFtvmLIltVAc5B-154" value="TRUE" style="edgeLabel;html=1;align=center;verticalAlign=middle;resizable=0;points=[];" parent="i2CHwRuFtvmLIltVAc5B-153" vertex="1" connectable="0">
                    <mxGeometry x="-0.139" y="-1" relative="1" as="geometry">
                        <mxPoint as="offset"/>
                    </mxGeometry>
                </mxCell>
                <mxCell id="i2CHwRuFtvmLIltVAc5B-155" value="val &amp;gt; 50" style="strokeWidth=2;html=1;shape=mxgraph.flowchart.decision;whiteSpace=wrap;" parent="1" vertex="1">
                    <mxGeometry x="340" y="1027" width="100" height="100" as="geometry"/>
                </mxCell>
                <mxCell id="i2CHwRuFtvmLIltVAc5B-156" style="edgeStyle=orthogonalEdgeStyle;rounded=0;orthogonalLoop=1;jettySize=auto;html=1;" parent="1" source="i2CHwRuFtvmLIltVAc5B-157" target="i2CHwRuFtvmLIltVAc5B-160" edge="1">
                    <mxGeometry relative="1" as="geometry">
                        <Array as="points">
                            <mxPoint x="225" y="1370"/>
                            <mxPoint x="395" y="1370"/>
                        </Array>
                    </mxGeometry>
                </mxCell>
                <mxCell id="i2CHwRuFtvmLIltVAc5B-157" value="a=60" style="strokeWidth=2;html=1;shape=mxgraph.flowchart.document2;whiteSpace=wrap;size=0.25;" parent="1" vertex="1">
                    <mxGeometry x="110" y="1190" width="230" height="110" as="geometry"/>
                </mxCell>
                <mxCell id="i2CHwRuFtvmLIltVAc5B-158" style="edgeStyle=orthogonalEdgeStyle;rounded=0;orthogonalLoop=1;jettySize=auto;html=1;entryX=0.5;entryY=0;entryDx=0;entryDy=0;" parent="1" target="i2CHwRuFtvmLIltVAc5B-160" edge="1">
                    <mxGeometry relative="1" as="geometry">
                        <Array as="points">
                            <mxPoint x="615" y="1370"/>
                            <mxPoint x="395" y="1370"/>
                        </Array>
                        <mxPoint x="615" y="1300" as="sourcePoint"/>
                    </mxGeometry>
                </mxCell>
                <mxCell id="i2CHwRuFtvmLIltVAc5B-160" value="stop" style="ellipse;whiteSpace=wrap;html=1;" parent="1" vertex="1">
                    <mxGeometry x="335" y="1450" width="120" height="80" as="geometry"/>
                </mxCell>
                <mxCell id="i2CHwRuFtvmLIltVAc5B-161" value="" style="edgeStyle=orthogonalEdgeStyle;rounded=0;orthogonalLoop=1;jettySize=auto;html=1;" parent="1" source="i2CHwRuFtvmLIltVAc5B-162" target="i2CHwRuFtvmLIltVAc5B-149" edge="1">
                    <mxGeometry relative="1" as="geometry">
                        <Array as="points">
                            <mxPoint x="390" y="830"/>
                            <mxPoint x="390" y="830"/>
                        </Array>
                    </mxGeometry>
                </mxCell>
                <mxCell id="i2CHwRuFtvmLIltVAc5B-162" value="start" style="ellipse;whiteSpace=wrap;html=1;" parent="1" vertex="1">
                    <mxGeometry x="335" y="730" width="120" height="80" as="geometry"/>
                </mxCell>
                <mxCell id="i2CHwRuFtvmLIltVAc5B-166" value="page18 ex1:" style="text;html=1;align=center;verticalAlign=middle;whiteSpace=wrap;rounded=0;" parent="1" vertex="1">
                    <mxGeometry x="239.5" y="755" width="103" height="30" as="geometry"/>
                </mxCell>
                <mxCell id="i2CHwRuFtvmLIltVAc5B-167" style="edgeStyle=orthogonalEdgeStyle;rounded=0;orthogonalLoop=1;jettySize=auto;html=1;" parent="1" source="i2CHwRuFtvmLIltVAc5B-168" target="i2CHwRuFtvmLIltVAc5B-173" edge="1">
                    <mxGeometry relative="1" as="geometry"/>
                </mxCell>
                <mxCell id="i2CHwRuFtvmLIltVAc5B-168" value="" style="verticalLabelPosition=bottom;verticalAlign=top;html=1;shape=card;whiteSpace=wrap;size=20;arcSize=12;" parent="1" vertex="1">
                    <mxGeometry x="390" y="1720" width="100" height="60" as="geometry"/>
                </mxCell>
                <mxCell id="i2CHwRuFtvmLIltVAc5B-169" value="age" style="text;html=1;align=center;verticalAlign=middle;whiteSpace=wrap;rounded=0;" parent="1" vertex="1">
                    <mxGeometry x="410" y="1735" width="60" height="30" as="geometry"/>
                </mxCell>
                <mxCell id="i2CHwRuFtvmLIltVAc5B-171" style="edgeStyle=orthogonalEdgeStyle;rounded=0;orthogonalLoop=1;jettySize=auto;html=1;" parent="1" source="i2CHwRuFtvmLIltVAc5B-173" edge="1">
                    <mxGeometry relative="1" as="geometry">
                        <mxPoint x="270" y="2010" as="targetPoint"/>
                    </mxGeometry>
                </mxCell>
                <mxCell id="i2CHwRuFtvmLIltVAc5B-172" value="TRUE" style="edgeLabel;html=1;align=center;verticalAlign=middle;resizable=0;points=[];" parent="i2CHwRuFtvmLIltVAc5B-171" vertex="1" connectable="0">
                    <mxGeometry x="-0.139" y="-1" relative="1" as="geometry">
                        <mxPoint as="offset"/>
                    </mxGeometry>
                </mxCell>
                <mxCell id="i2CHwRuFtvmLIltVAc5B-183" style="edgeStyle=orthogonalEdgeStyle;rounded=0;orthogonalLoop=1;jettySize=auto;html=1;" parent="1" source="i2CHwRuFtvmLIltVAc5B-173" edge="1">
                    <mxGeometry relative="1" as="geometry">
                        <mxPoint x="670" y="2010" as="targetPoint"/>
                    </mxGeometry>
                </mxCell>
                <mxCell id="i2CHwRuFtvmLIltVAc5B-173" value="val &amp;gt; 50" style="strokeWidth=2;html=1;shape=mxgraph.flowchart.decision;whiteSpace=wrap;" parent="1" vertex="1">
                    <mxGeometry x="390" y="1857" width="100" height="100" as="geometry"/>
                </mxCell>
                <mxCell id="i2CHwRuFtvmLIltVAc5B-174" style="edgeStyle=orthogonalEdgeStyle;rounded=0;orthogonalLoop=1;jettySize=auto;html=1;" parent="1" source="i2CHwRuFtvmLIltVAc5B-175" target="i2CHwRuFtvmLIltVAc5B-177" edge="1">
                    <mxGeometry relative="1" as="geometry">
                        <Array as="points">
                            <mxPoint x="275" y="2200"/>
                            <mxPoint x="445" y="2200"/>
                        </Array>
                    </mxGeometry>
                </mxCell>
                <mxCell id="i2CHwRuFtvmLIltVAc5B-175" value="a=60" style="strokeWidth=2;html=1;shape=mxgraph.flowchart.document2;whiteSpace=wrap;size=0.25;" parent="1" vertex="1">
                    <mxGeometry x="160" y="2020" width="230" height="110" as="geometry"/>
                </mxCell>
                <mxCell id="i2CHwRuFtvmLIltVAc5B-176" style="edgeStyle=orthogonalEdgeStyle;rounded=0;orthogonalLoop=1;jettySize=auto;html=1;entryX=0.5;entryY=0;entryDx=0;entryDy=0;" parent="1" target="i2CHwRuFtvmLIltVAc5B-177" edge="1">
                    <mxGeometry relative="1" as="geometry">
                        <Array as="points">
                            <mxPoint x="665" y="2200"/>
                            <mxPoint x="445" y="2200"/>
                        </Array>
                        <mxPoint x="665" y="2130" as="sourcePoint"/>
                    </mxGeometry>
                </mxCell>
                <mxCell id="i2CHwRuFtvmLIltVAc5B-177" value="stop" style="ellipse;whiteSpace=wrap;html=1;" parent="1" vertex="1">
                    <mxGeometry x="385" y="2280" width="120" height="80" as="geometry"/>
                </mxCell>
                <mxCell id="i2CHwRuFtvmLIltVAc5B-178" value="" style="edgeStyle=orthogonalEdgeStyle;rounded=0;orthogonalLoop=1;jettySize=auto;html=1;" parent="1" source="i2CHwRuFtvmLIltVAc5B-179" target="i2CHwRuFtvmLIltVAc5B-169" edge="1">
                    <mxGeometry relative="1" as="geometry">
                        <Array as="points">
                            <mxPoint x="440" y="1660"/>
                            <mxPoint x="440" y="1660"/>
                        </Array>
                    </mxGeometry>
                </mxCell>
                <mxCell id="i2CHwRuFtvmLIltVAc5B-179" value="start" style="ellipse;whiteSpace=wrap;html=1;" parent="1" vertex="1">
                    <mxGeometry x="385" y="1560" width="120" height="80" as="geometry"/>
                </mxCell>
                <mxCell id="i2CHwRuFtvmLIltVAc5B-180" value="page18 ex2:" style="text;html=1;align=center;verticalAlign=middle;whiteSpace=wrap;rounded=0;" parent="1" vertex="1">
                    <mxGeometry x="289.5" y="1585" width="103" height="30" as="geometry"/>
                </mxCell>
                <mxCell id="i2CHwRuFtvmLIltVAc5B-181" value="FALSE" style="text;html=1;align=center;verticalAlign=middle;whiteSpace=wrap;rounded=0;" parent="1" vertex="1">
                    <mxGeometry x="580" y="1895" width="60" height="30" as="geometry"/>
                </mxCell>
                <mxCell id="i2CHwRuFtvmLIltVAc5B-182" value="" style="strokeWidth=2;html=1;shape=mxgraph.flowchart.document2;whiteSpace=wrap;size=0.25;" parent="1" vertex="1">
                    <mxGeometry x="560" y="2015" width="200" height="105" as="geometry"/>
                </mxCell>
                <mxCell id="i2CHwRuFtvmLIltVAc5B-184" value="a=40" style="text;html=1;align=center;verticalAlign=middle;whiteSpace=wrap;rounded=0;" parent="1" vertex="1">
                    <mxGeometry x="590" y="2052.5" width="160" height="30" as="geometry"/>
                </mxCell>
            </root>
        </mxGraphModel>
    </diagram>
</mxfile>